<svg width="107" height="115" viewBox="0 0 107 115" fill="none" xmlns="http://www.w3.org/2000/svg">
<path d="M13.5491 57.1355C13.5491 33.1359 32.715 13.7125 56.3182 13.7125C72.5282 13.7125 86.6508 22.8673 93.9114 36.4087C95.6959 39.7368 99.8084 40.9708 103.097 39.1648C106.385 37.3587 107.605 33.1967 105.82 29.8685C96.2914 12.097 77.7066 0 56.3182 0C25.197 0 0 25.5982 0 57.1355C0 88.6728 25.197 114.271 56.3182 114.271C77.7066 114.271 96.2914 102.174 105.82 84.4025C107.605 81.0743 106.385 76.9122 103.097 75.1062C99.8084 73.3002 95.6959 74.5341 93.9114 77.8623C86.6508 91.4037 72.5282 100.558 56.3182 100.558C32.715 100.558 13.5491 81.1351 13.5491 57.1355Z" fill="#202121"/>
<path d="M66.6162 50.2792C66.6162 53.3251 65.3078 56.0617 63.2289 57.9449V74.2761H49.6799V57.9449C47.6009 56.0617 46.2926 53.3251 46.2926 50.2792C46.2926 44.5993 50.8422 39.9948 56.4544 39.9948C62.0666 39.9948 66.6162 44.5993 66.6162 50.2792Z" fill="#202121"/>
</svg>
