<svg width="328" height="115" viewBox="0 0 328 115" fill="none" xmlns="http://www.w3.org/2000/svg">
<path d="M13.5491 57.1355C13.5491 33.1359 32.715 13.7125 56.3182 13.7125C72.5282 13.7125 86.6508 22.8673 93.9114 36.4087C95.6959 39.7368 99.8084 40.9708 103.097 39.1648C106.385 37.3587 107.605 33.1967 105.82 29.8685C96.2914 12.097 77.7066 0 56.3182 0C25.197 0 0 25.5982 0 57.1355C0 88.6728 25.197 114.271 56.3182 114.271C77.7066 114.271 96.2914 102.174 105.82 84.4025C107.605 81.0743 106.385 76.9122 103.097 75.1062C99.8084 73.3002 95.6959 74.5341 93.9114 77.8623C86.6508 91.4037 72.5282 100.558 56.3182 100.558C32.715 100.558 13.5491 81.1351 13.5491 57.1355Z" fill="white"/>
<path d="M66.6162 50.2792C66.6162 53.3251 65.3078 56.0617 63.2289 57.9449V74.2761H49.6799V57.9449C47.6009 56.0617 46.2926 53.3251 46.2926 50.2792C46.2926 44.5993 50.8422 39.9948 56.4544 39.9948C62.0666 39.9948 66.6162 44.5993 66.6162 50.2792Z" fill="white"/>
<path d="M176.587 63.4524C174.691 66.3778 170.897 69.3031 166.11 69.3031C158.974 69.3031 154.006 64.1838 154.006 57.2361C154.006 50.4713 159.064 45.0777 165.839 45.0777C170.084 45.0777 173.607 47.2717 175.955 50.3798L184.265 42.9751C180.201 37.6729 173.426 34.1077 165.839 34.1077C152.47 34.1077 142.263 44.3463 142.263 57.2361C142.263 70.0344 152.199 80.2731 165.748 80.2731C173.968 80.2731 180.472 77.2564 185.62 70.3087L176.587 63.4524Z" fill="white"/>
<path d="M204.592 35.0218H192.85V79.3589H204.592V35.0218ZM191.043 19.2982C191.043 23.5947 194.476 26.8857 198.721 26.8857C202.967 26.8857 206.399 23.5947 206.399 19.2982C206.399 15.0016 202.967 11.7106 198.721 11.7106C194.476 11.7106 191.043 15.0016 191.043 19.2982Z" fill="white"/>
<path d="M222.682 35.0218H210.488L230.631 79.3589H238.761L258.904 35.0218H246.709L234.696 62.0812L222.682 35.0218Z" fill="white"/>
<path d="M276.487 35.0218H264.745V79.3589H276.487V35.0218ZM262.938 19.2982C262.938 23.5947 266.37 26.8857 270.616 26.8857C274.861 26.8857 278.294 23.5947 278.294 19.2982C278.294 15.0016 274.861 11.7106 270.616 11.7106C266.37 11.7106 262.938 15.0016 262.938 19.2982Z" fill="white"/>
<path d="M318.965 63.4524C317.069 66.3778 313.275 69.3031 308.488 69.3031C301.352 69.3031 296.384 64.1838 296.384 57.2361C296.384 50.4713 301.442 45.0777 308.217 45.0777C312.462 45.0777 315.985 47.2717 318.333 50.3798L326.643 42.9751C322.579 37.6729 315.804 34.1077 308.217 34.1077C294.848 34.1077 284.641 44.3463 284.641 57.2361C284.641 70.0344 294.577 80.2731 308.126 80.2731C316.346 80.2731 322.85 77.2564 327.998 70.3087L318.965 63.4524Z" fill="white"/>
</svg>
