<svg width="107" height="116" viewBox="0 0 107 116" fill="none" xmlns="http://www.w3.org/2000/svg">
<path d="M13.5491 57.8855C13.5491 33.8859 32.715 14.4625 56.3182 14.4625C72.5282 14.4625 86.6508 23.6173 93.9114 37.1587C95.6959 40.4868 99.8084 41.7208 103.097 39.9148C106.385 38.1087 107.605 33.9467 105.82 30.6185C96.2914 12.847 77.7066 0.75 56.3182 0.75C25.197 0.75 0 26.3482 0 57.8855C0 89.4228 25.197 115.021 56.3182 115.021C77.7066 115.021 96.2914 102.924 105.82 85.1525C107.605 81.8243 106.385 77.6622 103.097 75.8562C99.8084 74.0502 95.6959 75.2841 93.9114 78.6123C86.6508 92.1537 72.5282 101.308 56.3182 101.308C32.715 101.308 13.5491 81.8851 13.5491 57.8855Z" fill="#2E4D6D"/>
<path d="M66.6162 51.0292C66.6162 54.0751 65.3078 56.8117 63.2289 58.6949V75.0261H49.6799V58.6949C47.6009 56.8117 46.2926 54.0751 46.2926 51.0292C46.2926 45.3493 50.8422 40.7448 56.4544 40.7448C62.0666 40.7448 66.6162 45.3493 66.6162 51.0292Z" fill="#2E4D6D"/>
</svg>
