<svg width="328" height="116" viewBox="0 0 328 116" fill="none" xmlns="http://www.w3.org/2000/svg">
<path d="M13.5491 57.8855C13.5491 33.8859 32.715 14.4625 56.3182 14.4625C72.5282 14.4625 86.6508 23.6173 93.9114 37.1587C95.6959 40.4868 99.8084 41.7208 103.097 39.9148C106.385 38.1087 107.605 33.9467 105.82 30.6185C96.2914 12.847 77.7066 0.75 56.3182 0.75C25.197 0.75 0 26.3482 0 57.8855C0 89.4228 25.197 115.021 56.3182 115.021C77.7066 115.021 96.2914 102.924 105.82 85.1525C107.605 81.8243 106.385 77.6622 103.097 75.8562C99.8084 74.0502 95.6959 75.2841 93.9114 78.6123C86.6508 92.1537 72.5282 101.308 56.3182 101.308C32.715 101.308 13.5491 81.8851 13.5491 57.8855Z" fill="#2E4D6D"/>
<path d="M66.6162 51.0292C66.6162 54.0751 65.3078 56.8117 63.2289 58.6949V75.0261H49.6799V58.6949C47.6009 56.8117 46.2926 54.0751 46.2926 51.0292C46.2926 45.3493 50.8422 40.7448 56.4544 40.7448C62.0666 40.7448 66.6162 45.3493 66.6162 51.0292Z" fill="#2E4D6D"/>
<path d="M176.587 64.2024C174.69 67.1278 170.897 70.0531 166.109 70.0531C158.974 70.0531 154.006 64.9338 154.006 57.9861C154.006 51.2213 159.064 45.8277 165.838 45.8277C170.084 45.8277 173.607 48.0217 175.955 51.1298L184.265 43.7251C180.2 38.4229 173.426 34.8577 165.838 34.8577C152.47 34.8577 142.263 45.0963 142.263 57.9861C142.263 70.7844 152.199 81.0231 165.748 81.0231C173.968 81.0231 180.471 78.0064 185.62 71.0587L176.587 64.2024Z" fill="#202121"/>
<path d="M204.592 35.7718H192.85V80.1089H204.592V35.7718ZM191.043 20.0482C191.043 24.3447 194.476 27.6357 198.721 27.6357C202.966 27.6357 206.399 24.3447 206.399 20.0482C206.399 15.7516 202.966 12.4606 198.721 12.4606C194.476 12.4606 191.043 15.7516 191.043 20.0482Z" fill="#202121"/>
<path d="M222.682 35.7718H210.488L230.631 80.1089H238.761L258.903 35.7718H246.709L234.696 62.8312L222.682 35.7718Z" fill="#202121"/>
<path d="M276.487 35.7718H264.744V80.1089H276.487V35.7718ZM262.938 20.0482C262.938 24.3447 266.37 27.6357 270.616 27.6357C274.861 27.6357 278.293 24.3447 278.293 20.0482C278.293 15.7516 274.861 12.4606 270.616 12.4606C266.37 12.4606 262.938 15.7516 262.938 20.0482Z" fill="#202121"/>
<path d="M318.965 64.2024C317.068 67.1278 313.275 70.0531 308.487 70.0531C301.352 70.0531 296.384 64.9338 296.384 57.9861C296.384 51.2213 301.442 45.8277 308.216 45.8277C312.462 45.8277 315.985 48.0217 318.333 51.1298L326.643 43.7251C322.578 38.4229 315.804 34.8577 308.216 34.8577C294.848 34.8577 284.641 45.0963 284.641 57.9861C284.641 70.7844 294.577 81.0231 308.126 81.0231C316.346 81.0231 322.849 78.0064 327.998 71.0587L318.965 64.2024Z" fill="#202121"/>
</svg>
