<svg width="329" height="115" viewBox="0 0 329 115" fill="none" xmlns="http://www.w3.org/2000/svg">
<path d="M13.949 57.1355C13.949 33.1359 33.1149 13.7125 56.7181 13.7125C72.9281 13.7125 87.0507 22.8673 94.3113 36.4087C96.0958 39.7368 100.208 40.9708 103.497 39.1648C106.785 37.3587 108.004 33.1967 106.22 29.8685C96.6913 12.097 78.1065 0 56.7181 0C25.5969 0 0.399902 25.5982 0.399902 57.1355C0.399902 88.6728 25.5969 114.271 56.7181 114.271C78.1066 114.271 96.6913 102.174 106.22 84.4025C108.004 81.0743 106.785 76.9122 103.497 75.1062C100.208 73.3002 96.0958 74.5341 94.3113 77.8623C87.0507 91.4037 72.9281 100.558 56.7181 100.558C33.1149 100.558 13.949 81.1351 13.949 57.1355Z" fill="#202121"/>
<path d="M67.0161 50.2792C67.0161 53.3251 65.7077 56.0617 63.6288 57.9449V74.2761H50.0798V57.9449C48.0008 56.0617 46.6925 53.3251 46.6925 50.2792C46.6925 44.5993 51.2421 39.9948 56.8543 39.9948C62.4665 39.9948 67.0161 44.5993 67.0161 50.2792Z" fill="#202121"/>
<path d="M176.987 63.4524C175.091 66.3778 171.297 69.3031 166.509 69.3031C159.374 69.3031 154.406 64.1838 154.406 57.2361C154.406 50.4713 159.464 45.0777 166.238 45.0777C170.484 45.0777 174.007 47.2717 176.355 50.3798L184.665 42.9751C180.6 37.6729 173.826 34.1077 166.238 34.1077C152.87 34.1077 142.663 44.3463 142.663 57.2361C142.663 70.0344 152.599 80.2731 166.148 80.2731C174.368 80.2731 180.871 77.2564 186.02 70.3087L176.987 63.4524Z" fill="#202121"/>
<path d="M204.992 35.0218H193.25V79.3589H204.992V35.0218ZM191.443 19.2982C191.443 23.5947 194.876 26.8857 199.121 26.8857C203.366 26.8857 206.799 23.5947 206.799 19.2982C206.799 15.0016 203.366 11.7106 199.121 11.7106C194.876 11.7106 191.443 15.0016 191.443 19.2982Z" fill="#202121"/>
<path d="M223.082 35.0218H210.888L231.031 79.3589H239.161L259.304 35.0218H247.109L235.096 62.0812L223.082 35.0218Z" fill="#202121"/>
<path d="M276.887 35.0218H265.144V79.3589H276.887V35.0218ZM263.338 19.2982C263.338 23.5947 266.77 26.8857 271.016 26.8857C275.261 26.8857 278.694 23.5947 278.694 19.2982C278.694 15.0016 275.261 11.7106 271.016 11.7106C266.77 11.7106 263.338 15.0016 263.338 19.2982Z" fill="#202121"/>
<path d="M319.365 63.4524C317.469 66.3778 313.675 69.3031 308.887 69.3031C301.752 69.3031 296.784 64.1838 296.784 57.2361C296.784 50.4713 301.842 45.0777 308.616 45.0777C312.862 45.0777 316.385 47.2717 318.733 50.3798L327.043 42.9751C322.978 37.6729 316.204 34.1077 308.616 34.1077C295.248 34.1077 285.041 44.3463 285.041 57.2361C285.041 70.0344 294.977 80.2731 308.526 80.2731C316.746 80.2731 323.249 77.2564 328.398 70.3087L319.365 63.4524Z" fill="#202121"/>
</svg>
