<svg width="533" height="112" viewBox="0 0 533 112" fill="none" xmlns="http://www.w3.org/2000/svg">
<g clip-path="url(#clip0)">
<path d="M353.042 99.6531H364.806V74.8583C368.335 77.5733 372.136 78.8399 376.57 78.8399C383.086 78.8399 389.33 75.9444 393.221 71.4201C396.659 67.4382 398.741 62.0086 398.741 56.0362C398.741 43.0959 389.149 33.1417 377.204 33.1417C372.227 33.1417 367.793 34.7706 364.354 37.5759V34.0467H353.042V99.6531ZM364.806 49.4303C367.25 46.1726 371.141 44.0008 375.666 44.0008C382.543 44.0008 386.977 49.7018 386.977 56.0362C386.977 62.9136 382 67.9812 375.394 67.9812C370.959 67.9812 367.069 65.8093 364.806 62.5516V49.4303Z" fill="white"/>
<path d="M438.104 62.5516C435.843 65.8093 431.951 67.9812 427.517 67.9812C420.911 67.9812 415.934 62.9136 415.934 56.0362C415.934 49.7018 420.368 44.0008 427.246 44.0008C431.77 44.0008 435.661 46.1726 438.104 49.4303V62.5516ZM449.868 34.0467H438.557V37.5759C435.118 34.7706 430.685 33.1417 425.707 33.1417C413.762 33.1417 404.17 43.0959 404.17 56.0362C404.17 62.0086 406.342 67.4382 409.78 71.4201C413.672 75.9444 419.825 78.8399 426.341 78.8399C430.775 78.8399 434.938 77.4831 438.557 74.4058V77.9349H449.868V34.0467Z" fill="white"/>
<path d="M457.311 72.958C462.469 76.7585 468.893 78.8399 474.956 78.8399C484.187 78.8399 492.421 73.6819 492.421 65.2664C492.421 50.0637 471.156 52.326 471.156 46.625C471.156 44.3628 473.871 43.0959 477.128 43.0959C480.295 43.0959 483.282 44.4533 485.544 46.0821L491.064 37.5759C488.168 35.3135 481.924 33.1417 476.223 33.1417C467.536 33.1417 459.392 38.3903 459.392 46.806C459.392 60.9228 480.658 58.57 480.658 65.1759C480.658 67.3476 478.214 68.8862 475.047 68.8862C470.613 68.8862 465.998 67.2572 463.011 64.5425L457.311 72.958Z" fill="white"/>
<path d="M496.681 72.958C501.839 76.7585 508.265 78.8399 514.328 78.8399C523.557 78.8399 531.792 73.6819 531.792 65.2664C531.792 50.0637 510.526 52.326 510.526 46.625C510.526 44.3628 513.241 43.0959 516.499 43.0959C519.667 43.0959 522.652 44.4533 524.915 46.0821L530.435 37.5759C527.539 35.3135 521.295 33.1417 515.594 33.1417C506.907 33.1417 498.763 38.3903 498.763 46.806C498.763 60.9228 520.028 58.57 520.028 65.1759C520.028 67.3476 517.585 68.8862 514.418 68.8862C509.984 68.8862 505.368 67.2572 502.383 64.5425L496.681 72.958Z" fill="white"/>
<path d="M13.571 55.7884C13.571 32.3546 32.768 13.3892 56.4095 13.3892C72.6454 13.3892 86.7915 22.3282 94.0633 35.5503C95.8513 38.7999 99.97 40.0048 103.264 38.2413C106.558 36.4779 107.779 32.4139 105.992 29.1642C96.4477 11.8118 77.8323 0 56.4095 0C25.2378 0 0 24.9946 0 55.7884C0 86.5822 25.2378 111.577 56.4095 111.577C77.8323 111.577 96.4477 99.7647 105.992 82.4125C107.779 79.163 106.558 75.0987 103.264 73.3355C99.97 71.5716 95.8513 72.7769 94.0633 76.0264C86.7915 89.2483 72.6454 98.1875 56.4095 98.1875C32.768 98.1875 13.571 79.2222 13.571 55.7884Z" fill="white"/>
<path d="M66.7237 49.0938C66.7237 52.0679 65.4132 54.74 63.3309 56.5787V72.5249H49.7599V56.5787C47.6776 54.74 46.3672 52.0679 46.3672 49.0938C46.3672 43.5478 50.9241 39.0519 56.5454 39.0519C62.1667 39.0519 66.7237 43.5478 66.7237 49.0938Z" fill="white"/>
<path d="M176.877 61.9567C174.978 64.813 171.178 67.6694 166.383 67.6694C159.235 67.6694 154.259 62.6708 154.259 55.8869C154.259 49.2816 159.325 44.0152 166.111 44.0152C170.363 44.0152 173.892 46.1575 176.244 49.1924L184.568 41.9622C180.497 36.785 173.711 33.3038 166.111 33.3038C152.721 33.3038 142.498 43.3011 142.498 55.8869C142.498 68.3835 152.45 78.3805 166.021 78.3805C174.254 78.3805 180.768 75.4354 185.925 68.6513L176.877 61.9567Z" fill="white"/>
<path d="M204.927 34.1965H193.166V77.4879H204.927V34.1965ZM191.356 18.8435C191.356 23.0388 194.795 26.2522 199.047 26.2522C203.299 26.2522 206.737 23.0388 206.737 18.8435C206.737 14.6482 203.299 11.4348 199.047 11.4348C194.795 11.4348 191.356 14.6482 191.356 18.8435Z" fill="white"/>
<path d="M223.047 34.1964H210.833L231.009 77.4878H239.151L259.326 34.1964H247.113L235.08 60.6177L223.047 34.1964Z" fill="white"/>
<path d="M276.939 34.1965H265.178V77.4879H276.939V34.1965ZM263.368 18.8435C263.368 23.0388 266.806 26.2522 271.059 26.2522C275.311 26.2522 278.748 23.0388 278.748 18.8435C278.748 14.6482 275.311 11.4348 271.059 11.4348C266.806 11.4348 263.368 14.6482 263.368 18.8435Z" fill="white"/>
<path d="M319.486 61.9567C317.587 64.813 313.787 67.6694 308.992 67.6694C301.844 67.6694 296.868 62.6708 296.868 55.8869C296.868 49.2816 301.934 44.0152 308.72 44.0152C312.972 44.0152 316.501 46.1575 318.853 49.1924L327.177 41.9622C323.106 36.785 316.32 33.3038 308.72 33.3038C295.33 33.3038 285.106 43.3011 285.106 55.8869C285.106 68.3835 295.059 78.3805 308.63 78.3805C316.863 78.3805 323.377 75.4354 328.534 68.6513L319.486 61.9567Z" fill="white"/>
</g>
<defs>
<clipPath id="clip0">
<rect width="532.4" height="111.577" fill="white"/>
</clipPath>
</defs>
</svg>
